<svg xmlns="http://www.w3.org/2000/svg" xmlns:xlink="http://www.w3.org/1999/xlink" version="1.1" x="0px" y="0px" viewBox="0 0 100 125" enable-background="new 0 0 100 100" xml:space="preserve"><path d="M79.911,47.214l0.928-12.061C80.839,19.38,65.763,6.6,50.002,6.6c-15.772,0-30.837,12.78-30.837,28.553l0.927,12.05  c-0.882,0.213-1.678,0.617-2.343,1.187c-1.234,1.051-2.01,2.604-2.01,4.351v5.939c0,3.14,2.528,5.687,5.675,5.707  c0,14.892,17.89,29.009,28.583,29.013v0c0,0,0.001,0,0.001,0c0.001,0,0.002,0,0.004,0c8.687,0,22.131-9.32,26.866-20.804  c0.022-0.055,0.04-0.11,0.063-0.165c1.051-2.6,1.659-5.308,1.659-8.043c3.135-0.022,5.671-2.566,5.671-5.706v-5.939  C84.261,50.061,82.405,47.827,79.911,47.214z"/><text x="0" y="115" fill="#000000" font-size="5px" font-weight="bold" font-family="'Helvetica Neue', Helvetica, Arial-Unicode, Arial, Sans-serif">Created by Jacqueline Fernandes</text><text x="0" y="120" fill="#000000" font-size="5px" font-weight="bold" font-family="'Helvetica Neue', Helvetica, Arial-Unicode, Arial, Sans-serif">from the Noun Project</text></svg>